<?xml version="1.0" encoding="UTF-8"?>
<svg xmlns="http://www.w3.org/2000/svg" xmlns:xlink="http://www.w3.org/1999/xlink" viewBox="0 0 150 150" width="150px" height="150px">
<g id="surface82975881">
<rect x="0" y="0" width="150" height="150" style="fill:rgb(100%,100%,100%);fill-opacity:1;stroke:none;"/>
<path style=" stroke:none;fill-rule:nonzero;fill:rgb(78.039217%,92.941177%,90.196079%);fill-opacity:1;" d="M 130.824219 85.066406 C 132.523438 81.832031 133.5 78.15625 133.5 74.25 C 133.5 64.320312 127.261719 55.863281 118.5 52.53125 C 118.5 52.523438 118.5 52.511719 118.5 52.5 C 118.5 35.101562 104.398438 21 87 21 C 72.324219 21 60.027344 31.050781 56.53125 44.636719 C 54.316406 43.90625 51.957031 43.5 49.5 43.5 C 37.960938 43.5 28.464844 52.191406 27.164062 63.378906 C 19.359375 65.03125 13.5 71.953125 13.5 80.25 C 13.5 89.777344 21.222656 97.5 30.75 97.5 C 31.015625 97.5 31.277344 97.480469 31.539062 97.46875 C 31.53125 97.730469 31.5 97.984375 31.5 98.25 C 31.5 115.234375 45.265625 129 62.25 129 C 71.90625 129 80.511719 124.542969 86.152344 117.578125 C 89.417969 120.917969 93.960938 123 99 123 C 105.976562 123 112.011719 119.023438 115 113.222656 C 116.578125 113.726562 118.253906 114 120 114 C 129.113281 114 136.5 106.613281 136.5 97.5 C 136.5 92.535156 134.296875 88.089844 130.824219 85.066406 Z M 130.824219 85.066406 "/>
<path style=" stroke:none;fill-rule:nonzero;fill:rgb(99.215686%,98.823529%,93.725491%);fill-opacity:1;" d="M 80.445312 68.25 C 80.445312 68.25 85.902344 68.25 89.632812 68.25 C 93.359375 68.25 96.382812 65.226562 96.382812 61.5 C 96.382812 58 93.707031 55.15625 90.296875 54.816406 C 90.332031 54.546875 90.382812 54.28125 90.382812 54 C 90.382812 50.273438 87.359375 47.25 83.632812 47.25 C 81.472656 47.25 79.578125 48.277344 78.339844 49.855469 C 78.128906 45.898438 74.886719 42.75 70.882812 42.75 C 66.738281 42.75 63.382812 46.109375 63.382812 50.25 C 63.382812 50.917969 63.496094 51.554688 63.660156 52.171875 C 62.699219 51.007812 61.261719 50.25 59.632812 50.25 C 56.960938 50.25 54.78125 52.253906 54.449219 54.832031 C 54.175781 54.800781 53.910156 54.75 53.632812 54.75 C 49.902344 54.75 46.882812 57.773438 46.882812 61.5 C 46.882812 65.226562 49.902344 68.25 53.632812 68.25 C 57.359375 68.25 67.882812 68.25 67.882812 68.25 L 75.945312 68.25 L 75.945312 69 L 80.445312 69 Z M 80.445312 68.25 "/>
<path style=" stroke:none;fill-rule:nonzero;fill:rgb(27.843139%,16.862746%,16.078432%);fill-opacity:1;" d="M 70.882812 42 C 66.332031 42 62.632812 45.699219 62.632812 50.25 C 62.632812 50.273438 62.632812 50.296875 62.632812 50.320312 C 61.726562 49.789062 60.695312 49.5 59.632812 49.5 C 56.882812 49.5 54.515625 51.390625 53.84375 54.007812 C 53.773438 54.003906 53.703125 54 53.632812 54 C 49.496094 54 46.132812 57.363281 46.132812 61.5 C 46.132812 65.636719 49.496094 69 53.632812 69 L 75.945312 69 C 76.359375 69 76.695312 68.664062 76.695312 68.25 C 76.695312 67.835938 76.359375 67.5 75.945312 67.5 L 53.632812 67.5 C 50.320312 67.5 47.632812 64.808594 47.632812 61.5 C 47.632812 58.191406 50.320312 55.5 53.632812 55.5 C 53.804688 55.5 53.976562 55.527344 54.144531 55.546875 L 54.355469 55.578125 C 54.386719 55.582031 54.417969 55.582031 54.449219 55.582031 C 54.820312 55.582031 55.144531 55.304688 55.191406 54.925781 C 55.480469 52.6875 57.386719 51 59.632812 51 C 60.957031 51 62.214844 51.601562 63.082031 52.648438 C 63.230469 52.828125 63.445312 52.921875 63.660156 52.921875 C 63.777344 52.921875 63.894531 52.894531 64.003906 52.839844 C 64.316406 52.679688 64.472656 52.320312 64.382812 51.980469 C 64.210938 51.324219 64.128906 50.777344 64.128906 50.25 C 64.128906 46.527344 67.15625 43.5 70.878906 43.5 C 74.449219 43.5 77.398438 46.308594 77.589844 49.894531 C 77.605469 50.207031 77.816406 50.476562 78.113281 50.570312 C 78.1875 50.59375 78.265625 50.605469 78.34375 50.605469 C 78.566406 50.605469 78.785156 50.503906 78.929688 50.316406 C 80.089844 48.84375 81.800781 48 83.632812 48 C 86.941406 48 89.632812 50.691406 89.632812 54 C 89.632812 54.175781 89.605469 54.34375 89.582031 54.515625 L 89.554688 54.726562 C 89.53125 54.925781 89.585938 55.128906 89.714844 55.285156 C 89.839844 55.441406 90.023438 55.542969 90.222656 55.5625 C 93.304688 55.871094 95.628906 58.421875 95.628906 61.5 C 95.628906 64.808594 92.9375 67.5 89.628906 67.5 L 80.441406 67.5 C 80.027344 67.5 79.691406 67.835938 79.691406 68.25 C 79.691406 68.664062 80.027344 69 80.441406 69 L 89.628906 69 C 93.765625 69 97.128906 65.636719 97.128906 61.5 C 97.128906 57.90625 94.597656 54.878906 91.125 54.183594 C 91.128906 54.121094 91.128906 54.0625 91.128906 54 C 91.128906 49.863281 87.765625 46.5 83.628906 46.5 C 81.867188 46.5 80.191406 47.125 78.855469 48.246094 C 77.960938 44.640625 74.714844 42 70.882812 42 Z M 70.882812 42 "/>
<path style=" stroke:none;fill-rule:nonzero;fill:rgb(27.843139%,16.862746%,16.078432%);fill-opacity:1;" d="M 68.632812 52.5 C 66.527344 52.5 64.71875 54 64.261719 56.011719 C 63.710938 55.679688 63.082031 55.5 62.445312 55.5 C 60.640625 55.5 59.148438 56.84375 58.914062 58.601562 C 58.609375 58.53125 58.320312 58.5 58.039062 58.5 C 55.746094 58.5 53.820312 60.300781 53.660156 62.597656 C 53.644531 62.804688 53.800781 62.984375 54.007812 63 C 54.019531 63 54.027344 63 54.035156 63 C 54.230469 63 54.394531 62.847656 54.410156 62.652344 C 54.542969 60.746094 56.136719 59.25 58.039062 59.25 C 58.382812 59.25 58.742188 59.3125 59.144531 59.441406 C 59.179688 59.449219 59.210938 59.457031 59.246094 59.457031 C 59.328125 59.457031 59.410156 59.425781 59.480469 59.375 C 59.574219 59.304688 59.632812 59.179688 59.632812 59.0625 C 59.632812 57.511719 60.894531 56.25 62.445312 56.25 C 63.117188 56.25 63.773438 56.5 64.292969 56.957031 C 64.363281 57.019531 64.449219 57.050781 64.539062 57.050781 C 64.585938 57.050781 64.632812 57.042969 64.679688 57.023438 C 64.808594 56.972656 64.902344 56.847656 64.910156 56.707031 C 65.0625 54.769531 66.699219 53.25 68.628906 53.25 C 68.941406 53.25 69.265625 53.300781 69.652344 53.410156 C 69.6875 53.417969 69.722656 53.425781 69.757812 53.425781 C 69.921875 53.425781 70.066406 53.316406 70.117188 53.152344 C 70.171875 52.953125 70.058594 52.746094 69.859375 52.6875 C 69.40625 52.558594 69.015625 52.5 68.632812 52.5 Z M 68.632812 52.5 "/>
<path style=" stroke:none;fill-rule:nonzero;fill:rgb(27.843139%,16.862746%,16.078432%);fill-opacity:1;" d="M 89.457031 54.75 C 87.464844 54.75 85.695312 56.09375 85.144531 58.023438 C 85.085938 58.222656 85.203125 58.429688 85.402344 58.488281 C 85.4375 58.496094 85.472656 58.5 85.503906 58.5 C 85.667969 58.5 85.816406 58.394531 85.863281 58.226562 C 86.324219 56.621094 87.800781 55.5 89.457031 55.5 C 89.632812 55.5 89.800781 55.519531 89.96875 55.542969 C 89.988281 55.546875 90.003906 55.546875 90.019531 55.546875 C 90.203125 55.546875 90.363281 55.410156 90.390625 55.222656 C 90.417969 55.015625 90.273438 54.828125 90.070312 54.800781 C 89.867188 54.773438 89.664062 54.75 89.457031 54.75 Z M 89.457031 54.75 "/>
<path style=" stroke:none;fill-rule:nonzero;fill:rgb(100%,100%,100%);fill-opacity:1;" d="M 51.609375 117 L 36.75 117 C 36.335938 117 36 116.664062 36 116.25 C 36 115.835938 36.335938 115.5 36.75 115.5 L 51.609375 115.5 C 52.023438 115.5 52.359375 115.835938 52.359375 116.25 C 52.359375 116.664062 52.023438 117 51.609375 117 Z M 51.609375 117 "/>
<path style=" stroke:none;fill-rule:nonzero;fill:rgb(100%,100%,100%);fill-opacity:1;" d="M 56.25 117 L 54.75 117 C 54.335938 117 54 116.664062 54 116.25 C 54 115.835938 54.335938 115.5 54.75 115.5 L 56.25 115.5 C 56.664062 115.5 57 115.835938 57 116.25 C 57 116.664062 56.664062 117 56.25 117 Z M 56.25 117 "/>
<path style=" stroke:none;fill-rule:nonzero;fill:rgb(100%,100%,100%);fill-opacity:1;" d="M 63.738281 120 L 50.25 120 C 49.835938 120 49.5 119.664062 49.5 119.25 C 49.5 118.835938 49.835938 118.5 50.25 118.5 L 63.738281 118.5 C 64.152344 118.5 64.488281 118.835938 64.488281 119.25 C 64.488281 119.664062 64.152344 120 63.738281 120 Z M 63.738281 120 "/>
<path style=" stroke:none;fill-rule:nonzero;fill:rgb(100%,100%,100%);fill-opacity:1;" d="M 47.25 120 L 45.75 120 C 45.335938 120 45 119.664062 45 119.25 C 45 118.835938 45.335938 118.5 45.75 118.5 L 47.25 118.5 C 47.664062 118.5 48 118.835938 48 119.25 C 48 119.664062 47.664062 120 47.25 120 Z M 47.25 120 "/>
<path style=" stroke:none;fill-rule:nonzero;fill:rgb(100%,100%,100%);fill-opacity:1;" d="M 42.75 120 L 39.75 120 C 39.335938 120 39 119.664062 39 119.25 C 39 118.835938 39.335938 118.5 39.75 118.5 L 42.75 118.5 C 43.164062 118.5 43.5 118.835938 43.5 119.25 C 43.5 119.664062 43.164062 120 42.75 120 Z M 42.75 120 "/>
<path style=" stroke:none;fill-rule:nonzero;fill:rgb(100%,100%,100%);fill-opacity:1;" d="M 51.75 123 L 48.75 123 C 48.335938 123 48 122.664062 48 122.25 C 48 121.835938 48.335938 121.5 48.75 121.5 L 51.75 121.5 C 52.164062 121.5 52.5 121.835938 52.5 122.25 C 52.5 122.664062 52.164062 123 51.75 123 Z M 51.75 123 "/>
<path style=" stroke:none;fill-rule:nonzero;fill:rgb(100%,100%,100%);fill-opacity:1;" d="M 56.25 109.5 C 55.984375 109.5 55.015625 109.5 54.75 109.5 C 54.335938 109.5 54 109.835938 54 110.25 C 54 110.664062 54.335938 111 54.75 111 C 55.015625 111 55.984375 111 56.25 111 C 56.664062 111 57 110.664062 57 110.25 C 57 109.835938 56.664062 109.5 56.25 109.5 Z M 56.25 109.5 "/>
<path style=" stroke:none;fill-rule:nonzero;fill:rgb(100%,100%,100%);fill-opacity:1;" d="M 56.25 112.5 C 55.984375 112.5 49.015625 112.5 48.75 112.5 C 48.335938 112.5 48 112.835938 48 113.25 C 48 113.664062 48.335938 114 48.75 114 C 49.015625 114 55.984375 114 56.25 114 C 56.664062 114 57 113.664062 57 113.25 C 57 112.835938 56.664062 112.5 56.25 112.5 Z M 56.25 112.5 "/>
<path style=" stroke:none;fill-rule:nonzero;fill:rgb(100%,100%,100%);fill-opacity:1;" d="M 63.75 115.5 C 63.484375 115.5 59.515625 115.5 59.25 115.5 C 58.835938 115.5 58.5 115.835938 58.5 116.25 C 58.5 116.664062 58.835938 117 59.25 117 C 59.515625 117 63.484375 117 63.75 117 C 64.164062 117 64.5 116.664062 64.5 116.25 C 64.5 115.835938 64.164062 115.5 63.75 115.5 Z M 63.75 115.5 "/>
<path style=" stroke:none;fill-rule:nonzero;fill:rgb(100%,100%,100%);fill-opacity:1;" d="M 110.25 42 L 95.25 42 C 94.835938 42 94.5 41.664062 94.5 41.25 C 94.5 40.835938 94.835938 40.5 95.25 40.5 L 110.25 40.5 C 110.664062 40.5 111 40.835938 111 41.25 C 111 41.664062 110.664062 42 110.25 42 Z M 110.25 42 "/>
<path style=" stroke:none;fill-rule:nonzero;fill:rgb(100%,100%,100%);fill-opacity:1;" d="M 116.25 42 L 113.25 42 C 112.835938 42 112.5 41.664062 112.5 41.25 C 112.5 40.835938 112.835938 40.5 113.25 40.5 L 116.25 40.5 C 116.664062 40.5 117 40.835938 117 41.25 C 117 41.664062 116.664062 42 116.25 42 Z M 116.25 42 "/>
<path style=" stroke:none;fill-rule:nonzero;fill:rgb(100%,100%,100%);fill-opacity:1;" d="M 123.75 45 L 108.75 45 C 108.335938 45 108 44.664062 108 44.25 C 108 43.835938 108.335938 43.5 108.75 43.5 L 123.75 43.5 C 124.164062 43.5 124.5 43.835938 124.5 44.25 C 124.5 44.664062 124.164062 45 123.75 45 Z M 123.75 45 "/>
<path style=" stroke:none;fill-rule:nonzero;fill:rgb(100%,100%,100%);fill-opacity:1;" d="M 105.75 45 L 104.25 45 C 103.835938 45 103.5 44.664062 103.5 44.25 C 103.5 43.835938 103.835938 43.5 104.25 43.5 L 105.75 43.5 C 106.164062 43.5 106.5 43.835938 106.5 44.25 C 106.5 44.664062 106.164062 45 105.75 45 Z M 105.75 45 "/>
<path style=" stroke:none;fill-rule:nonzero;fill:rgb(100%,100%,100%);fill-opacity:1;" d="M 101.0625 45 L 98.25 45 C 97.835938 45 97.5 44.664062 97.5 44.25 C 97.5 43.835938 97.835938 43.5 98.25 43.5 L 101.0625 43.5 C 101.476562 43.5 101.8125 43.835938 101.8125 44.25 C 101.8125 44.664062 101.476562 45 101.0625 45 Z M 101.0625 45 "/>
<path style=" stroke:none;fill-rule:nonzero;fill:rgb(100%,100%,100%);fill-opacity:1;" d="M 114.75 39 L 107.25 39 C 106.835938 39 106.5 38.664062 106.5 38.25 C 106.5 37.835938 106.835938 37.5 107.25 37.5 L 114.75 37.5 C 115.164062 37.5 115.5 37.835938 115.5 38.25 C 115.5 38.664062 115.164062 39 114.75 39 Z M 114.75 39 "/>
<path style=" stroke:none;fill-rule:nonzero;fill:rgb(100%,100%,100%);fill-opacity:1;" d="M 110.25 48 L 107.25 48 C 106.835938 48 106.5 47.664062 106.5 47.25 C 106.5 46.835938 106.835938 46.5 107.25 46.5 L 110.25 46.5 C 110.664062 46.5 111 46.835938 111 47.25 C 111 47.664062 110.664062 48 110.25 48 Z M 110.25 48 "/>
<path style=" stroke:none;fill-rule:nonzero;fill:rgb(99.215686%,98.823529%,93.725491%);fill-opacity:1;" d="M 119.25 115.5 C 119.25 115.5 121.601562 115.5 124.5 115.5 C 127.398438 115.5 129.75 113.148438 129.75 110.25 C 129.75 107.578125 127.746094 105.398438 125.167969 105.066406 C 125.210938 104.800781 125.25 104.53125 125.25 104.25 C 125.25 101.351562 122.898438 99 120 99 C 118.453125 99 117.074219 99.683594 116.113281 100.746094 C 115.539062 98.035156 113.132812 96 110.25 96 C 106.9375 96 104.25 98.6875 104.25 102 C 104.25 102.285156 104.296875 102.5625 104.335938 102.835938 C 103.691406 102.320312 102.886719 102 102 102 C 100.15625 102 98.632812 103.332031 98.316406 105.082031 C 98.050781 105.039062 97.78125 105 97.5 105 C 94.601562 105 92.25 107.351562 92.25 110.25 C 92.25 113.148438 94.601562 115.5 97.5 115.5 C 100.398438 115.5 108.75 115.5 108.75 115.5 L 108.75 116.25 L 119.25 116.25 Z M 119.25 115.5 "/>
<path style=" stroke:none;fill-rule:nonzero;fill:rgb(27.843139%,16.862746%,16.078432%);fill-opacity:1;" d="M 121.875 108.75 C 121.667969 108.75 121.5 108.582031 121.5 108.375 C 121.5 106.539062 122.992188 105.046875 124.828125 105.046875 C 124.878906 105.0625 125.933594 105.046875 126.691406 105.253906 C 126.890625 105.304688 127.011719 105.511719 126.957031 105.710938 C 126.902344 105.910156 126.699219 106.03125 126.496094 105.976562 C 125.832031 105.796875 124.847656 105.796875 124.828125 105.796875 C 123.40625 105.796875 122.25 106.953125 122.25 108.375 C 122.25 108.582031 122.082031 108.75 121.875 108.75 Z M 121.875 108.75 "/>
<path style=" stroke:none;fill-rule:nonzero;fill:rgb(27.843139%,16.862746%,16.078432%);fill-opacity:1;" d="M 112.5 115.5 C 112.5 115.914062 112.164062 116.25 111.75 116.25 C 111.335938 116.25 111 115.914062 111 115.5 C 111 115.085938 111.335938 114.75 111.75 114.75 C 112.164062 114.75 112.5 115.085938 112.5 115.5 Z M 112.5 115.5 "/>
<path style=" stroke:none;fill-rule:nonzero;fill:rgb(27.843139%,16.862746%,16.078432%);fill-opacity:1;" d="M 124.5 116.25 L 119.25 116.25 C 118.835938 116.25 118.5 115.914062 118.5 115.5 C 118.5 115.085938 118.835938 114.75 119.25 114.75 L 124.5 114.75 C 126.980469 114.75 129 112.730469 129 110.25 C 129 108.007812 127.3125 106.097656 125.074219 105.8125 C 124.871094 105.785156 124.691406 105.679688 124.570312 105.515625 C 124.449219 105.355469 124.398438 105.152344 124.429688 104.953125 C 124.460938 104.722656 124.5 104.488281 124.5 104.25 C 124.5 101.769531 122.480469 99.75 120 99.75 C 118.726562 99.75 117.542969 100.28125 116.671875 101.25 C 116.484375 101.457031 116.191406 101.546875 115.921875 101.472656 C 115.648438 101.398438 115.441406 101.179688 115.382812 100.902344 C 114.871094 98.496094 112.710938 96.75 110.25 96.75 C 107.355469 96.75 105 99.105469 105 102 C 105 102.214844 105.03125 102.421875 105.0625 102.628906 C 105.105469 102.929688 104.96875 103.285156 104.699219 103.4375 C 104.429688 103.589844 104.105469 103.613281 103.863281 103.421875 C 103.316406 102.984375 102.671875 102.75 102 102.75 C 100.550781 102.75 99.3125 103.785156 99.054688 105.214844 C 98.984375 105.617188 98.613281 105.886719 98.203125 105.824219 C 97.972656 105.789062 97.738281 105.75 97.5 105.75 C 95.019531 105.75 93 107.769531 93 110.25 C 93 112.730469 95.019531 114.75 97.5 114.75 L 108.75 114.75 C 109.164062 114.75 109.5 115.085938 109.5 115.5 C 109.5 115.914062 109.164062 116.25 108.75 116.25 L 97.5 116.25 C 94.191406 116.25 91.5 113.558594 91.5 110.25 C 91.5 106.941406 94.191406 104.25 97.5 104.25 C 97.589844 104.25 97.675781 104.253906 97.761719 104.257812 C 98.382812 102.480469 100.066406 101.25 102 101.25 C 102.523438 101.25 103.035156 101.339844 103.515625 101.519531 C 103.765625 98.019531 106.6875 95.25 110.25 95.25 C 112.996094 95.25 115.449219 96.941406 116.480469 99.410156 C 117.5 98.664062 118.734375 98.25 120 98.25 C 123.308594 98.25 126 100.941406 126 104.25 C 126 104.320312 126 104.390625 125.992188 104.464844 C 128.609375 105.136719 130.5 107.503906 130.5 110.25 C 130.5 113.558594 127.808594 116.25 124.5 116.25 Z M 124.5 116.25 "/>
<path style=" stroke:none;fill-rule:nonzero;fill:rgb(27.843139%,16.862746%,16.078432%);fill-opacity:1;" d="M 116.25 114.75 C 116.011719 114.75 114.988281 114.75 114.75 114.75 C 114.335938 114.75 114 115.085938 114 115.5 C 114 115.914062 114.335938 116.25 114.75 116.25 C 114.988281 116.25 116.011719 116.25 116.25 116.25 C 116.664062 116.25 117 115.914062 117 115.5 C 117 115.085938 116.664062 114.75 116.25 114.75 Z M 116.25 114.75 "/>
<path style=" stroke:none;fill-rule:nonzero;fill:rgb(27.843139%,16.862746%,16.078432%);fill-opacity:1;" d="M 98.367188 88.984375 C 98.074219 88.984375 97.796875 88.816406 97.675781 88.527344 C 97.515625 88.148438 97.695312 87.707031 98.074219 87.542969 L 114.183594 80.710938 C 114.566406 80.550781 115.003906 80.722656 115.167969 81.105469 C 115.328125 81.488281 115.152344 81.929688 114.769531 82.089844 L 98.660156 88.925781 C 98.5625 88.96875 98.464844 88.984375 98.367188 88.984375 Z M 98.367188 88.984375 "/>
<path style=" stroke:none;fill-rule:nonzero;fill:rgb(27.843139%,16.862746%,16.078432%);fill-opacity:1;" d="M 117.820312 80.726562 C 117.53125 80.726562 117.253906 80.554688 117.132812 80.269531 C 116.96875 79.886719 117.148438 79.449219 117.53125 79.285156 L 120.417969 78.058594 C 120.792969 77.902344 121.238281 78.078125 121.402344 78.457031 C 121.5625 78.839844 121.382812 79.277344 121.003906 79.441406 L 118.117188 80.667969 C 118.019531 80.710938 117.917969 80.726562 117.820312 80.726562 Z M 117.820312 80.726562 "/>
<path style=" stroke:none;fill-rule:nonzero;fill:rgb(95.686275%,34.509805%,20.392157%);fill-opacity:1;" d="M 40.273438 105.035156 C 31.148438 105.035156 27.75 98.578125 27.75 94.507812 C 27.75 87.007812 34.019531 78.894531 39.898438 71.878906 L 41.144531 72.699219 C 39.460938 76.058594 39.03125 77.761719 39.226562 80.285156 C 39.226562 87.472656 44.351562 88.972656 48.652344 88.972656 C 49.972656 88.972656 51.3125 88.777344 52.636719 88.402344 C 114.835938 71.882812 122.636719 69.890625 123.695312 69.648438 L 123.691406 69.640625 C 123.894531 69.589844 124.074219 69.5625 124.234375 69.5625 C 124.8125 69.5625 125.117188 69.898438 125.214844 70.214844 C 125.296875 70.492188 125.316406 71.042969 124.488281 71.589844 C 123.714844 71.933594 59.046875 99.421875 53.121094 101.789062 L 52.628906 101.980469 C 49.140625 103.34375 44.796875 105.035156 40.273438 105.035156 Z M 40.273438 105.035156 "/>
<path style=" stroke:none;fill-rule:nonzero;fill:rgb(27.843139%,16.862746%,16.078432%);fill-opacity:1;" d="M 124.234375 70.3125 C 124.652344 70.3125 124.5625 70.640625 124.074219 70.964844 C 124.074219 70.964844 58.828125 98.699219 52.84375 101.09375 C 49.253906 102.492188 44.863281 104.285156 40.273438 104.285156 C 31.894531 104.285156 28.5 98.5 28.5 94.507812 C 28.5 87.523438 34.289062 79.746094 40.472656 72.363281 C 38.675781 75.953125 38.277344 77.746094 38.476562 80.34375 C 38.476562 86.726562 42.46875 89.722656 48.652344 89.722656 C 50.050781 89.722656 51.445312 89.523438 52.84375 89.121094 C 52.84375 89.121094 123.476562 70.367188 123.875 70.367188 C 124.019531 70.332031 124.140625 70.3125 124.234375 70.3125 M 124.234375 68.214844 C 123.960938 68.214844 123.675781 68.25 123.363281 68.328125 L 123.371094 68.351562 C 121.449219 68.789062 111.386719 71.402344 52.304688 87.09375 C 51.0625 87.445312 49.847656 87.621094 48.652344 87.621094 C 43.21875 87.621094 40.578125 85.242188 40.578125 80.34375 C 40.578125 80.289062 40.574219 80.234375 40.570312 80.183594 C 40.414062 78.152344 40.628906 76.746094 42.351562 73.300781 C 42.828125 72.347656 42.515625 71.191406 41.625 70.605469 C 41.269531 70.375 40.871094 70.261719 40.472656 70.261719 C 39.871094 70.261719 39.277344 70.523438 38.863281 71.015625 C 32.832031 78.210938 26.402344 86.554688 26.402344 94.511719 C 26.402344 99.101562 30.167969 106.386719 40.273438 106.386719 C 45.050781 106.386719 49.527344 104.644531 53.121094 103.242188 L 53.605469 103.054688 C 59.558594 100.667969 122.230469 74.03125 124.894531 72.898438 C 125.015625 72.847656 125.132812 72.789062 125.238281 72.714844 C 126.890625 71.613281 126.628906 70.222656 126.503906 69.820312 C 126.207031 68.84375 125.316406 68.214844 124.234375 68.214844 Z M 124.234375 68.214844 "/>
<path style=" stroke:none;fill-rule:nonzero;fill:rgb(27.843139%,16.862746%,16.078432%);fill-opacity:1;" d="M 40.273438 102.035156 C 33.335938 102.035156 30.75 97.417969 30.75 94.507812 C 30.75 94.09375 31.085938 93.757812 31.5 93.757812 C 31.914062 93.757812 32.25 94.09375 32.25 94.507812 C 32.25 96.839844 34.429688 100.535156 40.273438 100.535156 C 40.570312 100.535156 40.871094 100.527344 41.171875 100.507812 C 41.578125 100.492188 41.941406 100.796875 41.964844 101.210938 C 41.988281 101.625 41.675781 101.980469 41.261719 102.003906 C 40.933594 102.027344 40.601562 102.035156 40.273438 102.035156 Z M 40.273438 102.035156 "/>
<path style=" stroke:none;fill-rule:nonzero;fill:rgb(27.843139%,16.862746%,16.078432%);fill-opacity:1;" d="M 44.296875 101.554688 C 43.953125 101.554688 43.644531 101.316406 43.566406 100.964844 C 43.472656 100.5625 43.730469 100.160156 44.132812 100.070312 C 45.03125 99.867188 45.984375 99.601562 47.042969 99.25 C 47.4375 99.121094 47.863281 99.332031 47.992188 99.722656 C 48.121094 100.117188 47.910156 100.542969 47.515625 100.671875 C 46.410156 101.039062 45.410156 101.320312 44.460938 101.535156 C 44.40625 101.546875 44.351562 101.554688 44.296875 101.554688 Z M 44.296875 101.554688 "/>
<path style=" stroke:none;fill-rule:nonzero;fill:rgb(27.843139%,16.862746%,16.078432%);fill-opacity:1;" d="M 50.039062 99.71875 C 49.738281 99.71875 49.453125 99.535156 49.339844 99.238281 C 49.191406 98.851562 49.378906 98.417969 49.765625 98.269531 L 51.457031 97.609375 C 54.320312 96.464844 65.378906 91.738281 65.492188 91.695312 C 65.871094 91.53125 66.3125 91.707031 66.476562 92.089844 C 66.636719 92.46875 66.460938 92.910156 66.078125 93.074219 C 65.96875 93.121094 54.890625 97.851562 52.003906 99.007812 L 50.308594 99.667969 C 50.21875 99.699219 50.128906 99.71875 50.039062 99.71875 Z M 50.039062 99.71875 "/>
</g>
</svg>
