<svg width="888" height="570" viewBox="0 0 888 570" fill="none" xmlns="http://www.w3.org/2000/svg">
<g id="undraw_proud_coder_7ain 1" clip-path="url(#clip0)">
<g id="Group 1">
<path id="Vector" d="M887.873 0.346649H276.411V391.954H887.873V0.346649Z" fill="#E6E6E6"/>
<path id="Vector_2" d="M870.388 49.4639H293.896V368.786H870.388V49.4639Z" fill="white"/>
<path id="Vector_3" d="M887.612 0H276.15V25.9771H887.612V0Z" fill="black"/>
<path id="Vector_4" d="M295.454 18.0955C298.113 18.0955 300.269 15.9399 300.269 13.2809C300.269 10.6218 298.113 8.46622 295.454 8.46622C292.795 8.46622 290.64 10.6218 290.64 13.2809C290.64 15.9399 292.795 18.0955 295.454 18.0955Z" fill="white"/>
<path id="Vector_5" d="M313.73 18.0955C316.389 18.0955 318.544 15.9399 318.544 13.2809C318.544 10.6218 316.389 8.46622 313.73 8.46622C311.071 8.46622 308.915 10.6218 308.915 13.2809C308.915 15.9399 311.071 18.0955 313.73 18.0955Z" fill="white"/>
<path id="Vector_6" d="M332.005 18.0955C334.664 18.0955 336.82 15.9399 336.82 13.2809C336.82 10.6218 334.664 8.46622 332.005 8.46622C329.346 8.46622 327.19 10.6218 327.19 13.2809C327.19 15.9399 329.346 18.0955 332.005 18.0955Z" fill="white"/>
<path id="Vector_7" d="M707.267 79.3726H519.58C519.179 79.3198 518.811 79.1232 518.545 78.8193C518.278 78.5155 518.131 78.1251 518.131 77.721C518.131 77.3169 518.278 76.9266 518.545 76.6227C518.811 76.3189 519.179 76.1222 519.58 76.0694H707.267C707.667 76.1222 708.035 76.3189 708.302 76.6227C708.568 76.9266 708.715 77.3169 708.715 77.721C708.715 78.1251 708.568 78.5155 708.302 78.8193C708.035 79.1232 707.667 79.3198 707.267 79.3726Z" fill="#CCCCCC"/>
<path id="Vector_8" d="M577.218 97.5401H457.886C457.486 97.4873 457.118 97.2906 456.851 96.9868C456.585 96.6829 456.438 96.2926 456.438 95.8885C456.438 95.4843 456.585 95.094 456.851 94.7902C457.118 94.4863 457.486 94.2897 457.886 94.2369H577.218C577.619 94.2897 577.987 94.4863 578.253 94.7902C578.52 95.094 578.666 95.4843 578.666 95.8885C578.666 96.2926 578.52 96.6829 578.253 96.9868C577.987 97.2906 577.619 97.4873 577.218 97.5401Z" fill="#CCCCCC"/>
<path id="Vector_9" d="M707.267 97.8704H587.935C587.534 97.8176 587.166 97.6209 586.9 97.317C586.634 97.0132 586.487 96.6229 586.487 96.2188C586.487 95.8147 586.634 95.4243 586.9 95.1205C587.166 94.8166 587.534 94.62 587.935 94.5672H707.267C707.668 94.62 708.035 94.8166 708.302 95.1205C708.568 95.4243 708.715 95.8147 708.715 96.2188C708.715 96.6229 708.568 97.0132 708.302 97.317C708.035 97.6209 707.668 97.8176 707.267 97.8704H707.267Z" fill="#CCCCCC"/>
<path id="Vector_10" d="M577.508 115.708H458.176C457.775 115.655 457.408 115.458 457.141 115.154C456.875 114.85 456.728 114.46 456.728 114.056C456.728 113.652 456.875 113.261 457.141 112.958C457.408 112.654 457.775 112.457 458.176 112.404H577.508C577.908 112.457 578.276 112.654 578.543 112.958C578.809 113.261 578.956 113.652 578.956 114.056C578.956 114.46 578.809 114.85 578.543 115.154C578.276 115.458 577.908 115.655 577.508 115.708Z" fill="#CCCCCC"/>
<path id="Vector_11" d="M577.798 133.875H458.466C458.065 133.822 457.697 133.626 457.431 133.322C457.164 133.018 457.017 132.627 457.017 132.223C457.017 131.819 457.164 131.429 457.431 131.125C457.697 130.821 458.065 130.625 458.466 130.572H577.798C578.198 130.625 578.566 130.821 578.832 131.125C579.099 131.429 579.246 131.819 579.246 132.223C579.246 132.627 579.099 133.018 578.832 133.322C578.566 133.626 578.198 133.822 577.798 133.875Z" fill="#CCCCCC"/>
<path id="Vector_12" d="M631.96 115.708H597.783C597.382 115.655 597.014 115.458 596.748 115.154C596.481 114.85 596.335 114.46 596.335 114.056C596.335 113.652 596.481 113.261 596.748 112.958C597.014 112.654 597.382 112.457 597.783 112.404H631.96C632.361 112.457 632.729 112.654 632.995 112.958C633.262 113.261 633.408 113.652 633.408 114.056C633.408 114.46 633.262 114.85 632.995 115.154C632.729 115.458 632.361 115.655 631.96 115.708Z" fill="#CCCCCC"/>
<path id="Vector_13" d="M631.96 133.545H597.783C597.382 133.492 597.014 133.295 596.748 132.991C596.481 132.687 596.335 132.297 596.335 131.893C596.335 131.489 596.481 131.099 596.748 130.795C597.014 130.491 597.382 130.294 597.783 130.241H631.96C632.361 130.294 632.729 130.491 632.995 130.795C633.262 131.099 633.408 131.489 633.408 131.893C633.408 132.297 633.262 132.687 632.995 132.991C632.729 133.295 632.361 133.492 631.96 133.545Z" fill="#CCCCCC"/>
<path id="Vector_14" d="M689.309 133.545H655.132C654.731 133.492 654.363 133.295 654.097 132.991C653.83 132.687 653.683 132.297 653.683 131.893C653.683 131.489 653.83 131.099 654.097 130.795C654.363 130.491 654.731 130.294 655.132 130.241H689.309C689.71 130.294 690.078 130.491 690.344 130.795C690.61 131.099 690.757 131.489 690.757 131.893C690.757 132.297 690.61 132.687 690.344 132.991C690.078 133.295 689.71 133.492 689.309 133.545Z" fill="#CCCCCC"/>
<path id="Vector_15" d="M491.195 79.3726H457.017C456.617 79.3198 456.249 79.1232 455.982 78.8193C455.716 78.5155 455.569 78.1251 455.569 77.721C455.569 77.3169 455.716 76.9266 455.982 76.6227C456.249 76.3189 456.617 76.1222 457.017 76.0694H491.195C491.596 76.1222 491.963 76.3189 492.23 76.6227C492.496 76.9266 492.643 77.3169 492.643 77.721C492.643 78.1251 492.496 78.5155 492.23 78.8193C491.963 79.1232 491.596 79.3198 491.195 79.3726Z" fill="#CCCCCC"/>
<path id="Vector_16" d="M576.784 287.678H457.452C457.051 287.626 456.683 287.429 456.417 287.125C456.151 286.821 456.004 286.431 456.004 286.027C456.004 285.623 456.151 285.232 456.417 284.928C456.683 284.625 457.051 284.428 457.452 284.375H576.784C577.184 284.428 577.552 284.625 577.819 284.928C578.085 285.232 578.232 285.623 578.232 286.027C578.232 286.431 578.085 286.821 577.819 287.125C577.552 287.429 577.184 287.626 576.784 287.678H576.784Z" fill="#CCCCCC"/>
<path id="Vector_17" d="M576.204 324.013H456.873C456.472 323.961 456.104 323.764 455.838 323.46C455.571 323.156 455.424 322.766 455.424 322.362C455.424 321.958 455.571 321.567 455.838 321.263C456.104 320.96 456.472 320.763 456.873 320.71H576.205C576.605 320.763 576.973 320.96 577.239 321.263C577.506 321.567 577.653 321.958 577.653 322.362C577.653 322.766 577.506 323.156 577.239 323.46C576.973 323.764 576.605 323.961 576.205 324.013H576.204Z" fill="#CCCCCC"/>
<path id="Vector_18" d="M576.494 342.181H457.162C456.762 342.128 456.394 341.931 456.127 341.627C455.861 341.324 455.714 340.933 455.714 340.529C455.714 340.125 455.861 339.735 456.127 339.431C456.394 339.127 456.762 338.93 457.162 338.878H576.494C576.895 338.93 577.263 339.127 577.529 339.431C577.796 339.735 577.942 340.125 577.942 340.529C577.942 340.933 577.796 341.324 577.529 341.627C577.263 341.931 576.895 342.128 576.494 342.181H576.494Z" fill="#CCCCCC"/>
<path id="Vector_19" d="M627.471 324.344H593.293C592.893 324.291 592.525 324.094 592.258 323.79C591.992 323.486 591.845 323.096 591.845 322.692C591.845 322.288 591.992 321.898 592.258 321.594C592.525 321.29 592.893 321.093 593.293 321.04H627.471C627.871 321.093 628.239 321.29 628.506 321.594C628.772 321.898 628.919 322.288 628.919 322.692C628.919 323.096 628.772 323.486 628.506 323.79C628.239 324.094 627.871 324.291 627.471 324.344Z" fill="#CCCCCC"/>
<path id="Vector_20" d="M627.471 342.181H593.293C592.893 342.128 592.525 341.931 592.258 341.627C591.992 341.324 591.845 340.933 591.845 340.529C591.845 340.125 591.992 339.735 592.258 339.431C592.525 339.127 592.893 338.93 593.293 338.878H627.471C627.871 338.93 628.239 339.127 628.506 339.431C628.772 339.735 628.919 340.125 628.919 340.529C628.919 340.933 628.772 341.324 628.506 341.627C628.239 341.931 627.871 342.128 627.471 342.181Z" fill="#CCCCCC"/>
<path id="Vector_21" d="M684.82 324.344H650.642C650.241 324.291 649.874 324.094 649.607 323.79C649.341 323.486 649.194 323.096 649.194 322.692C649.194 322.288 649.341 321.898 649.607 321.594C649.874 321.29 650.241 321.093 650.642 321.04H684.82C685.22 321.093 685.588 321.29 685.855 321.594C686.121 321.898 686.268 322.288 686.268 322.692C686.268 323.096 686.121 323.486 685.855 323.79C685.588 324.094 685.22 324.291 684.82 324.344Z" fill="#CCCCCC"/>
<path id="Vector_22" d="M707.412 305.846H519.725C519.324 305.793 518.956 305.596 518.69 305.293C518.423 304.989 518.276 304.598 518.276 304.194C518.276 303.79 518.423 303.4 518.69 303.096C518.956 302.792 519.324 302.595 519.725 302.543H707.412C707.812 302.595 708.18 302.792 708.447 303.096C708.713 303.4 708.86 303.79 708.86 304.194C708.86 304.598 708.713 304.989 708.447 305.293C708.18 305.596 707.812 305.793 707.412 305.846Z" fill="#CCCCCC"/>
<path id="Vector_23" d="M491.34 305.846H457.162C456.762 305.793 456.394 305.596 456.127 305.293C455.861 304.989 455.714 304.598 455.714 304.194C455.714 303.79 455.861 303.4 456.127 303.096C456.394 302.792 456.762 302.595 457.162 302.543H491.34C491.74 302.595 492.108 302.792 492.375 303.096C492.641 303.4 492.788 303.79 492.788 304.194C492.788 304.598 492.641 304.989 492.375 305.293C492.108 305.596 491.74 305.793 491.34 305.846Z" fill="#CCCCCC"/>
<path id="Vector_24" d="M149.825 460.994V511.12H135.503L125.956 458.607L149.825 460.994Z" fill="#FFB9B9"/>
<path id="Vector_25" d="M36.445 460.994V511.12H22.124L12.576 458.607L36.445 460.994Z" fill="#FFB9B9"/>
<path id="Vector_26" d="M111.998 91.4823C111.998 91.4823 88.9837 74.941 86.1069 82.852C83.2301 90.7631 103.367 105.147 103.367 105.147L111.998 91.4823Z" fill="#FFB9B9"/>
<path id="Vector_27" d="M30.3699 112.698C30.3699 141.296 42.6827 142.185 62.7411 142.185C82.7996 142.185 103.008 141.296 103.008 112.698C103.008 84.1002 86.7473 60.9168 66.6888 60.9168C46.6304 60.9168 30.3699 84.1002 30.3699 112.698Z" fill="#2F2E41"/>
<path id="Vector_28" d="M79.6342 112.339C79.6342 112.339 76.7575 133.914 90.422 135.353C104.087 136.791 45.8324 141.106 45.8324 141.106C45.8324 141.106 60.9353 127.442 53.0243 116.654C45.1132 105.866 79.6342 112.339 79.6342 112.339Z" fill="#FFB9B9"/>
<path id="Vector_29" d="M152.272 497.823L157.307 540.255C157.307 540.255 182.478 571.181 166.656 569.023C150.834 566.865 140.765 569.482 140.765 566.605C140.765 563.728 140.393 553.45 138.236 553.45C136.078 553.45 134.293 569.68 134.293 569.68C134.293 569.68 127.82 569.19 127.101 568.471C126.381 567.752 125.662 526.591 125.662 526.591C125.662 526.591 123.505 514.365 127.82 508.611C132.135 502.858 131.416 497.823 131.416 497.823L152.272 497.823Z" fill="#2F2E41"/>
<path id="Vector_30" d="M37.6989 497.357L42.7333 539.789C42.7333 539.789 67.9049 570.714 52.0827 568.556C36.2606 566.399 26.1919 569.015 26.1919 566.138C26.1919 563.262 25.82 552.983 23.6624 552.983C21.5048 552.983 19.7193 569.214 19.7193 569.214C19.7193 569.214 13.2466 568.724 12.5274 568.005C11.8082 567.285 11.089 526.124 11.089 526.124C11.089 526.124 8.93145 513.898 13.2466 508.145C17.5617 502.391 16.8425 497.357 16.8425 497.357H37.6989Z" fill="#2F2E41"/>
<path id="Vector_31" d="M114.874 245.388C114.874 245.388 137.888 310.835 139.327 325.218C140.765 339.602 137.888 388.507 137.888 388.507C137.888 388.507 158.745 473.005 154.43 473.725C150.115 474.444 126.084 477.853 125.365 474.258C124.646 470.662 122.082 465.094 122.801 462.937C123.52 460.779 120.643 452.868 120.643 448.553C120.643 444.238 110.559 421.589 111.278 417.994C111.998 414.398 99.0522 361.178 96.8946 356.863C94.7371 352.547 88.9836 322.342 88.9836 322.342C88.9836 322.342 56.6201 410.802 55.9009 412.959C55.1818 415.117 52.305 418.713 53.7434 419.432C55.1817 420.151 51.5858 425.185 51.5858 425.185C51.5858 425.185 44.1335 455.026 44.1335 456.464C44.1335 457.903 45.5719 474.183 42.6951 474.903C39.8184 475.622 10.4337 475.576 8.99533 470.542C7.55695 465.507 24.2567 407.206 24.2567 407.206C24.2567 407.206 36.4829 370.527 32.8869 361.178C29.291 351.828 36.4829 295.732 39.3596 291.417C42.2364 287.101 42.9556 261.211 42.9556 261.211L114.874 245.388Z" fill="#2F2E41"/>
<path id="Vector_32" d="M67.0484 124.205C79.7587 124.205 90.0624 113.902 90.0624 101.191C90.0624 88.481 79.7587 78.1773 67.0484 78.1773C54.3381 78.1773 44.0344 88.481 44.0344 101.191C44.0344 113.902 54.3381 124.205 67.0484 124.205Z" fill="#FFB9B9"/>
<path id="Vector_33" d="M79.6343 130.318C79.6343 130.318 53.7435 131.038 52.3051 128.88C50.8667 126.722 14.9073 133.914 14.9073 148.298C14.9073 162.682 35.7638 218.779 35.7638 218.779C35.7638 218.779 43.6749 259.053 41.5173 263.368C39.3597 267.683 121.347 254.019 119.19 246.827C117.032 239.635 104.806 223.813 120.628 210.148C136.45 196.484 142.923 182.1 142.923 182.1L124.224 132.476C124.224 132.476 105.525 129.599 101.21 132.476C96.8948 135.353 79.6343 130.318 79.6343 130.318Z" fill="#FAFAFD"/>
<path id="Vector_34" d="M137.888 185.696L142.923 182.1C142.923 182.1 189.67 133.195 177.444 123.846C165.218 114.496 147.238 105.866 138.608 105.147C129.977 104.428 122.786 97.955 122.786 97.955C122.786 97.955 113.436 81.4137 106.244 92.2015C99.0523 102.989 91.1413 106.585 101.21 110.181C111.279 113.777 117.751 112.339 122.786 115.935C127.82 119.531 147.238 125.284 138.608 127.442C133.659 128.641 128.841 130.328 124.224 132.476L114.874 149.017L137.888 185.696Z" fill="#FAFAFD"/>
<path id="Vector_35" d="M56.6202 307.239C56.6202 307.239 75.3191 334.568 61.6545 333.129C47.99 331.691 41.5173 312.992 41.5173 312.992L56.6202 307.239Z" fill="#FFB9B9"/>
<path id="Vector_36" d="M19.9416 144.702L14.9073 148.298C14.9073 148.298 -1.63402 238.916 14.9073 262.649C31.4486 286.382 32.887 284.944 32.887 284.944C32.887 284.944 35.7637 282.786 37.2021 297.17C38.6405 311.554 36.4829 317.307 40.7981 317.307C45.1132 317.307 64.5313 312.992 63.0929 309.396C61.6545 305.8 52.3051 284.944 51.5859 279.909C50.8667 274.875 47.2708 263.368 45.8324 256.895C44.394 250.423 52.3051 246.827 48.7091 233.162C45.1132 219.498 40.0789 195.045 40.0789 190.011C40.0789 184.977 19.9416 144.702 19.9416 144.702Z" fill="#FAFAFD"/>
<path id="Vector_37" d="M44.7536 80.6945C44.7536 88.4398 55.3793 94.7186 68.4868 94.7186C81.5943 94.7186 93.6584 98.868 93.6584 91.1227C93.6584 83.3773 81.5943 66.6703 68.4868 66.6703C55.3793 66.6703 44.7536 72.9491 44.7536 80.6945Z" fill="#2F2E41"/>
<path id="Vector_38" d="M102.792 117.552C102.792 117.552 103.761 143.623 77.8533 142.185C51.9456 140.747 81.3544 119.9 81.3544 119.9L102.792 117.552Z" fill="#2F2E41"/>
<path id="Vector_39" d="M702.906 567.379H0V569.62H702.906V567.379Z" fill="#3F3D56"/>
</g>
<g id="left-bracket">
<path id="Vector_40" d="M535.343 163L489 208.764L535.343 254.527L545.77 244.1L510.723 209.053L546.059 173.717L535.343 163Z" fill="#F48926"/>
</g>
<g id="right-bracket">
<path id="Vector_41" d="M629.717 163L676.059 208.764L629.717 254.527L619.29 244.1L654.336 209.053L619 173.717L629.717 163Z" fill="#F48926"/>
</g>
</g>
<defs>
<clipPath id="clip0">
<rect width="887.873" height="569.68" fill="white"/>
</clipPath>
</defs>
</svg>
